<svg width="13" height="17" viewBox="0 0 13 17" fill="none" xmlns="http://www.w3.org/2000/svg">
<path d="M6.02881 16.1875C6.31006 16.625 6.96631 16.625 7.24756 16.1875C11.8101 9.625 12.6538 8.9375 12.6538 6.5C12.6538 3.1875 9.96631 0.5 6.65381 0.5C3.31006 0.5 0.653809 3.1875 0.653809 6.5C0.653809 8.9375 1.46631 9.625 6.02881 16.1875ZM6.65381 9C5.24756 9 4.15381 7.90625 4.15381 6.5C4.15381 5.125 5.24756 4 6.65381 4C8.02881 4 9.15381 5.125 9.15381 6.5C9.15381 7.90625 8.02881 9 6.65381 9Z" fill="#607080"/>
</svg>
