<svg width="95" height="25" viewBox="0 0 95 25" fill="none" xmlns="http://www.w3.org/2000/svg">
<rect x="10.5537" y="-1.3252" width="12" height="25" rx="6" transform="rotate(30 10.5537 -1.3252)" fill="#3011BC"/>
<rect x="27.4458" y="-1.3252" width="12" height="25" rx="6" transform="rotate(30 27.4458 -1.3252)" fill="#FE7A15"/>
<path d="M50.572 7.62H52.892L50.364 18.5H46.284L43.756 7.62H46.076L47.964 16.58H48.684L50.572 7.62ZM54.0959 11.412C54.6612 10.676 55.6052 10.308 56.9279 10.308C58.2505 10.308 59.1945 10.676 59.7599 11.412C60.3252 12.1373 60.6079 13.1613 60.6079 14.484C60.6079 17.2893 59.3812 18.692 56.9279 18.692C54.4745 18.692 53.2479 17.2893 53.2479 14.484C53.2479 13.1613 53.5305 12.1373 54.0959 11.412ZM55.7439 16.292C55.9679 16.676 56.3625 16.868 56.9279 16.868C57.4932 16.868 57.8825 16.676 58.0959 16.292C58.3199 15.908 58.4319 15.3053 58.4319 14.484C58.4319 13.6627 58.3199 13.0653 58.0959 12.692C57.8825 12.3187 57.4932 12.132 56.9279 12.132C56.3625 12.132 55.9679 12.3187 55.7439 12.692C55.5305 13.0653 55.4239 13.6627 55.4239 14.484C55.4239 15.3053 55.5305 15.908 55.7439 16.292ZM61.3029 10.5H63.4149L64.8709 16.676H65.2389L66.6949 10.5H68.8069L65.9909 21.86H63.8949L64.7749 18.5H63.2709L61.3029 10.5ZM76.0419 12.996V16.324C76.0632 16.58 76.1059 16.7613 76.1699 16.868C76.2339 16.964 76.3672 17.0333 76.5699 17.076L76.5059 18.692C75.9619 18.692 75.5245 18.6547 75.1939 18.58C74.8739 18.5053 74.5485 18.356 74.2179 18.132C73.4499 18.5053 72.6659 18.692 71.8659 18.692C70.2125 18.692 69.3859 17.8173 69.3859 16.068C69.3859 15.2147 69.6152 14.612 70.0739 14.26C70.5325 13.8973 71.2365 13.684 72.1859 13.62L73.8979 13.492V12.996C73.8979 12.6653 73.8232 12.4413 73.6739 12.324C73.5245 12.196 73.2845 12.132 72.9539 12.132L69.9459 12.26L69.8819 10.772C71.0232 10.4627 72.1059 10.308 73.1299 10.308C74.1645 10.308 74.9059 10.5213 75.3539 10.948C75.8125 11.3747 76.0419 12.0573 76.0419 12.996ZM72.4419 15.108C71.8445 15.1613 71.5459 15.4813 71.5459 16.068C71.5459 16.6547 71.8072 16.948 72.3299 16.948C72.7352 16.948 73.1779 16.884 73.6579 16.756L73.8979 16.692V14.98L72.4419 15.108ZM85.3338 19.492C85.3338 20.4093 84.9818 21.0867 84.2778 21.524C83.5738 21.9613 82.6191 22.18 81.4138 22.18C80.2191 22.18 79.2964 22.02 78.6458 21.7C78.0058 21.38 77.6858 20.7987 77.6858 19.956C77.6858 19.284 78.0698 18.6493 78.8378 18.052C78.4431 17.7853 78.2458 17.38 78.2458 16.836C78.2458 16.6227 78.4058 16.2707 78.7258 15.78L78.8698 15.556C78.1444 15.0333 77.7818 14.2653 77.7818 13.252C77.7818 12.228 78.0858 11.4867 78.6938 11.028C79.3124 10.5693 80.1284 10.34 81.1418 10.34C81.6004 10.34 82.0538 10.3933 82.5018 10.5L82.7578 10.548L85.3338 10.468V12.18L84.1338 12.084C84.3684 12.4467 84.4858 12.8093 84.4858 13.172C84.4858 14.2387 84.2138 14.9747 83.6698 15.38C83.1258 15.7853 82.2724 15.988 81.1098 15.988C80.8644 15.988 80.6458 15.9667 80.4538 15.924C80.3471 16.2013 80.2938 16.4307 80.2938 16.612C80.2938 16.7827 80.3844 16.9 80.5658 16.964C80.7471 17.028 81.1738 17.0653 81.8458 17.076C83.1898 17.0867 84.1071 17.268 84.5978 17.62C85.0884 17.9613 85.3338 18.5853 85.3338 19.492ZM79.7978 19.732C79.7978 20.1907 80.3578 20.42 81.4778 20.42C82.6084 20.42 83.1738 20.1533 83.1738 19.62C83.1738 19.332 83.0778 19.1453 82.8858 19.06C82.6938 18.9853 82.2884 18.9427 81.6698 18.932L80.2298 18.82C79.9418 19.108 79.7978 19.412 79.7978 19.732ZM79.9258 13.188C79.9258 13.9667 80.3311 14.356 81.1418 14.356C81.9631 14.356 82.3738 13.9667 82.3738 13.188C82.3738 12.3987 81.9631 12.004 81.1418 12.004C80.3311 12.004 79.9258 12.3987 79.9258 13.188ZM88.3926 15.412C88.4033 15.9027 88.5313 16.26 88.7766 16.484C89.0326 16.6973 89.3953 16.804 89.8646 16.804C90.8566 16.804 91.742 16.772 92.5206 16.708L92.9686 16.66L93.0006 18.244C91.774 18.5427 90.6646 18.692 89.6726 18.692C88.4673 18.692 87.5926 18.372 87.0486 17.732C86.5046 17.092 86.2326 16.052 86.2326 14.612C86.2326 11.7427 87.4113 10.308 89.7686 10.308C92.094 10.308 93.2566 11.5133 93.2566 13.924L93.0966 15.412H88.3926ZM91.1446 13.78C91.1446 13.14 91.0433 12.6973 90.8406 12.452C90.638 12.196 90.2806 12.068 89.7686 12.068C89.2673 12.068 88.91 12.2013 88.6966 12.468C88.494 12.724 88.3873 13.1613 88.3766 13.78H91.1446Z" fill="#3011BC"/>
</svg>
