<svg width="44" height="53" viewBox="0 0 44 53" fill="none" xmlns="http://www.w3.org/2000/svg">
<path fill-rule="evenodd" clip-rule="evenodd" d="M24.5343 0.504592C25.5091 0.919445 26.2873 1.7961 41.2285 15.5441C42.952 17.1303 43.9413 19.3876 43.9412 21.7386V46.7313C43.9412 49.676 41.5575 52.0728 38.6279 52.0728H5.81326C2.88378 52.0728 0.5 49.676 0.5 46.7313V21.7386C0.5 19.3876 1.4892 17.1303 3.21388 15.5441L18.5523 1.43056C20.0909 0.0151716 22.3184 -0.373102 24.1903 0.369454C24.3197 0.419709 24.4282 0.459412 24.5343 0.504592ZM22.5845 8.745C21.6099 8.56208 20.7388 9.23655 20.6398 10.1863C20.5584 10.9875 21.0844 11.7703 21.9461 11.9501C22.8484 12.1195 23.6832 11.5542 23.8679 10.6668C24.0416 9.83378 23.5166 8.93935 22.5845 8.745ZM14.0519 19.1719C11.2127 19.1719 8.903 21.7376 8.903 24.8915C8.903 28.0454 11.2127 30.6121 14.0519 30.6121C16.892 30.6121 19.2017 28.0454 19.2017 24.8915C19.2017 21.7376 16.8921 19.1719 14.0519 19.1719ZM16.7657 40.0182C16.3106 41.1013 17.1165 42.2853 18.2713 42.2853C18.9108 42.2853 19.5166 41.9084 19.7791 41.283L27.7354 22.3226C28.0841 21.4903 27.693 20.5316 26.8606 20.1829C26.0283 19.8332 25.0707 20.2254 24.721 21.0577L16.7657 40.0182ZM25.3932 37.8557C25.3932 41.0096 27.7028 43.5752 30.5419 43.5752C33.3811 43.5752 35.6918 41.0096 35.6918 37.8557C35.6918 34.7018 33.3811 32.1351 30.5419 32.1351C27.7029 32.1351 25.3932 34.7018 25.3932 37.8557ZM14.0514 22.4402C13.0317 22.4402 12.1709 23.5634 12.1709 24.8915C12.1709 26.2206 13.0315 27.3438 14.0514 27.3438C15.0711 27.3438 15.9328 26.2206 15.9328 24.8915C15.9328 23.5634 15.0711 22.4402 14.0514 22.4402ZM30.5445 35.4034C29.5248 35.4034 28.6641 36.5266 28.6641 37.8557C28.6641 39.1837 29.5247 40.3069 30.5445 40.3069C31.5642 40.3069 32.4261 39.1837 32.4261 37.8557C32.4261 36.5266 31.5642 35.4034 30.5445 35.4034Z" fill="#FFFEFE"/>
</svg>
