<svg width="53" height="52" viewBox="0 0 53 52" fill="none" xmlns="http://www.w3.org/2000/svg">
<path d="M26.5 0C12.163 0 0.5 11.663 0.5 26C0.5 40.337 12.163 52 26.5 52C40.837 52 52.5 40.337 52.5 26C52.5 11.663 40.837 0 26.5 0ZM38.8652 39.4483C38.4427 39.8708 37.8881 40.0835 37.3335 40.0835C36.7788 40.0835 36.2238 39.8708 35.8017 39.4483L24.9682 28.6152C24.5608 28.2102 24.3335 27.6595 24.3335 27.0835V13C24.3335 11.8019 25.3039 10.8335 26.5 10.8335C27.6961 10.8335 28.6665 11.8019 28.6665 13V26.1865L38.8652 36.3848C39.7122 37.2322 39.7122 38.6013 38.8652 39.4483V39.4483Z" fill="#FFFEFE"/>
</svg>
