<svg width="12" height="14" viewBox="0 0 12 14" fill="none" xmlns="http://www.w3.org/2000/svg">
<path d="M6.1875 6.625C7.96484 6.625 9.4375 5.17773 9.4375 3.375C9.4375 1.59766 7.96484 0.125 6.1875 0.125C4.38477 0.125 2.9375 1.59766 2.9375 3.375C2.9375 5.17773 4.38477 6.625 6.1875 6.625ZM8.44727 7.4375H8.01562C7.45703 7.7168 6.84766 7.84375 6.1875 7.84375C5.52734 7.84375 4.89258 7.7168 4.33398 7.4375H3.90234C2.02344 7.4375 0.5 8.98633 0.5 10.8652V11.9062C0.5 12.5918 1.0332 13.125 1.71875 13.125H10.6562C11.3164 13.125 11.875 12.5918 11.875 11.9062V10.8652C11.875 8.98633 10.3262 7.4375 8.44727 7.4375Z" fill="#4C5A66"/>
</svg>
